@startuml
class py2puml.domain.umlclass.UmlAttribute {
  name: str
  type: str
}
class py2puml.domain.umlclass.UmlClass {
  attributes: List[UmlAttribute]
}
class py2puml.domain.umlitem.UmlItem {
  name: str
  fqdn: str
}
class py2puml.domain.umlenum.Member {
  name: str
  value: str
}
class py2puml.domain.umlenum.UmlEnum {
  members: List[Member]
}
enum py2puml.domain.umlrelation.RelType {
  COMPOSITION: *
  INHERITANCE: <|
}
class py2puml.domain.umlrelation.UmlRelation {
  source_fqdn: str
  target_fqdn: str
  type: RelType
}
py2puml.domain.umlclass.UmlClass *-- py2puml.domain.umlclass.UmlAttribute
py2puml.domain.umlitem.UmlItem <|-- py2puml.domain.umlclass.UmlClass
py2puml.domain.umlenum.UmlEnum *-- py2puml.domain.umlenum.Member
py2puml.domain.umlitem.UmlItem <|-- py2puml.domain.umlenum.UmlEnum
py2puml.domain.umlrelation.UmlRelation *-- py2puml.domain.umlrelation.RelType
@enduml
